<svg width="16" height="16" viewBox="0 0 16 16" fill="none" xmlns="http://www.w3.org/2000/svg">
<path d="M12.32 4.29938C12.232 4.23447 12.132 4.18755 12.0258 4.16129C11.9196 4.13504 11.8092 4.12997 11.7011 4.14638C11.5929 4.16279 11.489 4.20035 11.3954 4.25691C11.3018 4.31348 11.2202 4.38794 11.1553 4.47605L7.20602 9.83605L4.69468 7.82671C4.52153 7.69407 4.3033 7.63454 4.08677 7.66089C3.87025 7.68724 3.67266 7.79737 3.53637 7.96767C3.40008 8.13797 3.33593 8.35488 3.35767 8.57192C3.37941 8.78895 3.48532 8.98883 3.65268 9.12871L6.84135 11.6794C6.92946 11.7483 7.03043 11.799 7.13835 11.8284C7.24626 11.8579 7.35897 11.8656 7.46988 11.851C7.5808 11.8364 7.68769 11.7998 7.78432 11.7435C7.88095 11.6871 7.96538 11.6121 8.03268 11.5227L12.4994 5.46471C12.5641 5.37644 12.6109 5.27626 12.637 5.16991C12.663 5.06355 12.6678 4.95311 12.6512 4.84488C12.6345 4.73666 12.5967 4.63277 12.5399 4.53917C12.4831 4.44557 12.4083 4.36409 12.32 4.29938Z" fill="#4ED687"/>
<path d="M8 0C6.41775 0 4.87104 0.469192 3.55544 1.34824C2.23985 2.22729 1.21447 3.47672 0.608967 4.93853C0.00346629 6.40034 -0.15496 8.00887 0.153721 9.56072C0.462403 11.1126 1.22433 12.538 2.34315 13.6569C3.46197 14.7757 4.88743 15.5376 6.43928 15.8463C7.99113 16.155 9.59966 15.9965 11.0615 15.391C12.5233 14.7855 13.7727 13.7602 14.6518 12.4446C15.5308 11.129 16 9.58225 16 8C15.9977 5.87897 15.1541 3.84547 13.6543 2.34568C12.1545 0.845885 10.121 0.00229405 8 0V0ZM8 14.6667C6.68146 14.6667 5.39253 14.2757 4.2962 13.5431C3.19987 12.8106 2.34539 11.7694 1.84081 10.5512C1.33622 9.33305 1.2042 7.9926 1.46144 6.6994C1.71867 5.40619 2.35361 4.2183 3.28596 3.28595C4.21831 2.3536 5.4062 1.71867 6.6994 1.46143C7.99261 1.2042 9.33305 1.33622 10.5512 1.8408C11.7694 2.34539 12.8106 3.19987 13.5431 4.2962C14.2757 5.39253 14.6667 6.68146 14.6667 8C14.6647 9.76751 13.9617 11.4621 12.7119 12.7119C11.4621 13.9617 9.76752 14.6647 8 14.6667Z" fill="#4ED687"/>
</svg>
