<svg width="143" height="28" viewBox="0 0 143 28" fill="none" xmlns="http://www.w3.org/2000/svg">
<g clip-path="url(#clip0)">
<path d="M1.14731 19.0065L2.93164 18.719V2.06536L0.94043 1.80392L1.04387 0H13.5083L13.198 5.04575L10.7154 4.96732L10.5603 1.80392H6.70717V9.30719H8.38806L8.77595 7.5817L10.5086 7.63399V12.8105H8.77595L8.3622 11.0327H6.68131V18.9804H10.5603L10.9223 15.5294L13.5342 15.6078L13.741 20.8627H1.06973L1.14731 19.0065Z" fill="#C0CDD3"/>
<path d="M14.9052 20.8889L14.9827 19.3464L16.3792 19.0588V8.54899L14.75 8.39213V6.8235L18.8358 6.22219L19.1462 7.11108V7.71239C20.1288 6.66664 21.3184 6.03918 22.8441 6.03918C25.0681 6.03918 26.7231 7.39866 26.7231 10.0915V19.0327L28.1971 19.3202L28.1195 20.8627H23.2579V10.8758C23.2579 9.43788 22.7407 8.62742 21.4477 8.62742C21.0081 8.62742 20.6978 8.70585 20.3616 8.83657C20.1547 9.01958 19.9478 9.28102 19.7668 9.51631V19.0849L21.2408 19.3725L21.1374 20.915H14.9052V20.8889Z" fill="#C0CDD3"/>
<path d="M93.0277 20.8889L93.0794 19.3464L94.4759 19.0588V8.54899L92.8467 8.39213V6.8235L96.9325 6.22219L97.2428 7.11108V7.71239C98.2255 6.66664 99.4151 6.03918 100.941 6.03918C103.165 6.03918 104.82 7.39866 104.82 10.0915V19.0327L106.294 19.3202L106.216 20.8627H101.38V10.8758C101.38 9.43788 100.863 8.62742 99.5702 8.62742C99.1306 8.62742 98.8203 8.70585 98.4841 8.83657C98.2772 9.01958 98.0704 9.28102 97.8893 9.51631V19.0849L99.3634 19.3725L99.2599 20.915H93.0277V20.8889Z" fill="#C0CDD3"/>
<path d="M35.9029 20.6012C35.334 20.8365 34.3254 21.098 33.0066 21.098C31.274 21.098 29.6707 20.3137 29.6707 17.7516V8.54895L28.0156 8.28751L28.0932 6.45744L29.9551 6.37901L30.7568 3.58163L33.1359 3.47705V6.48359H35.696L35.515 8.31365L33.1617 8.57509V17.7777C33.1617 18.5359 33.5755 19.0326 34.3513 19.0326H35.7477L35.9029 20.6012Z" fill="#C0CDD3"/>
<path d="M132.697 20.8889L132.748 19.3725L134.067 19.0588V8.54899L132.516 8.39212V6.8235L136.757 6.22219L137.041 7.2418V7.58167C138.153 6.74506 139.653 6.19604 141.463 6.19604L142.084 6.74506L141.644 10.7189L139.317 10.6405L139.084 8.52284C138.541 8.60127 138.024 8.75814 137.584 9.07186V19.0849L139.058 19.3987L138.955 20.915H132.697V20.8889Z" fill="#C0CDD3"/>
<path d="M71.7968 20.8889L71.8743 19.3725L73.1932 19.0588V8.54899L71.6416 8.39212V6.8235L75.8826 6.22219L76.1671 7.2418V7.58167C77.279 6.74506 78.7789 6.19604 80.5891 6.19604L81.2097 6.74506L80.7184 10.7189L78.391 10.6405L78.1583 8.52284C77.6152 8.60127 77.098 8.75814 76.6584 9.07186V19.0849L78.1324 19.3987L78.029 20.915H71.7968V20.8889Z" fill="#C0CDD3"/>
<path d="M36.9374 20.8889L37.015 19.3725L38.3338 19.0588V8.54899L36.7822 8.39212V6.8235L41.0232 6.22219L41.3077 7.2418V7.58167C42.4197 6.74506 43.9195 6.19604 45.7039 6.19604L46.3245 6.74506L45.8849 10.7189L43.5575 10.6405L43.3248 8.52284C42.7817 8.60127 42.2645 8.75814 41.8249 9.07186V19.0849L43.2989 19.3987L43.1955 20.915H36.9374V20.8889Z" fill="#C0CDD3"/>
<path d="M50.3328 14.4836C50.3328 16.9935 51.4189 18.9281 53.5652 18.9281C54.6772 18.9281 55.5564 18.6928 56.5908 18.1961L57.1856 19.5817C56.1254 20.4444 54.5738 21.098 52.6343 21.098C48.8587 21.098 46.6865 17.8039 46.6865 13.5686C46.6865 9.96077 48.264 6.01306 52.5826 6.01306C56.3581 6.01306 57.7804 9.54247 57.7804 13.464L57.4183 14.4052L50.3328 14.4836ZM50.281 12.8104L54.6255 12.6013C54.5479 10.8497 54.1859 8.07842 52.4791 8.07842C52.0654 8.07842 51.7809 8.15685 51.2637 8.41829C50.5655 9.6209 50.281 11.7908 50.281 12.8104Z" fill="#C0CDD3"/>
<path d="M110.43 14.4836C110.43 16.9935 111.517 18.9281 113.663 18.9281C114.775 18.9281 115.654 18.6928 116.689 18.1961L117.283 19.5817C116.223 20.4444 114.671 21.098 112.732 21.098C108.956 21.098 106.784 17.8039 106.784 13.5686C106.784 9.96077 108.362 6.01306 112.68 6.01306C116.456 6.01306 117.878 9.54247 117.878 13.464L117.516 14.4052L110.43 14.4836ZM110.379 12.8104L114.723 12.6013C114.646 10.8497 114.284 8.07842 112.577 8.07842C112.163 8.07842 111.879 8.15685 111.361 8.41829C110.663 9.6209 110.379 11.7908 110.379 12.8104Z" fill="#C0CDD3"/>
<path d="M85.1921 14.4836C85.1921 16.9935 86.2782 18.9281 88.4246 18.9281C89.5366 18.9281 90.4158 18.6928 91.4502 18.1961L92.045 19.5817C90.9847 20.4444 89.4331 21.098 87.4937 21.098C83.7181 21.098 81.5459 17.8039 81.5459 13.5686C81.5459 9.96077 83.1233 6.01306 87.4419 6.01306C91.2175 6.01306 92.6398 9.54247 92.6398 13.464L92.2777 14.4052L85.1921 14.4836ZM85.1404 12.8104L89.4849 12.6013C89.4073 10.8497 89.0452 8.07842 87.3385 8.07842C86.9247 8.07842 86.6403 8.15685 86.1231 8.41829C85.4249 9.6209 85.1146 11.7908 85.1404 12.8104Z" fill="#C0CDD3"/>
<path d="M127.654 20.8888L127.292 19.6339C126.335 20.5489 125.404 21.098 123.956 21.098C121.732 21.098 119.74 19.9738 119.74 16.8627V8.18293L118.111 8.02607V6.64045L122.818 6.09143L123.18 7.34633V16.4444C123.18 18.0391 123.826 18.8757 125.093 18.8757C125.456 18.8757 125.921 18.8235 126.335 18.6666C126.567 18.4313 126.8 18.1437 126.981 17.8561V8.18293L125.3 8.02607V6.64045L130.059 6.09143L130.421 7.34633V19.0588L131.895 19.3463L131.714 20.8888H127.654Z" fill="#C0CDD3"/>
<path d="M64.8396 19.0065C64.0897 19.0065 63.4949 18.8758 63.0295 18.6143V9.38559C63.2363 9.07186 63.4691 8.78428 63.7018 8.52284C64.1414 8.36598 64.5293 8.31369 64.9948 8.31369C66.9343 8.31369 67.2705 10.3006 67.2705 13.8562C67.2705 17.281 66.7533 18.2222 66.624 18.6143C66.0809 18.8758 65.512 19.0065 64.8396 19.0065ZM70.6322 13.2287C70.6322 8.81043 69.3393 6.03918 66.1068 6.03918C63.9604 6.03918 62.9519 7.29409 62.5381 7.81696V7.32023L62.1761 6.06533L57.9609 6.66664V8.18298L59.5901 8.39213V26.2222L58.1937 26.5098L58.1161 28H64.3483L64.4518 26.5098L62.9777 26.2222V20.5751C63.5725 20.915 64.4 21.1242 65.3051 21.1242C70.5805 21.1242 70.6322 15.7124 70.6322 13.2287Z" fill="#C0CDD3"/>
</g>
<defs>
<clipPath id="clip0">
<rect width="141.143" height="28" fill="white" transform="translate(0.94043)"/>
</clipPath>
</defs>
</svg>
