<svg width="24" height="24" viewBox="0 0 24 24" fill="none" xmlns="http://www.w3.org/2000/svg">
<path d="M12 24C5.3736 24 0 18.6264 0 12C0 5.3736 5.3736 0 12 0C18.6264 0 24 5.3736 24 12C24 18.6264 18.6264 24 12 24Z" fill="#FF4500"/>
<path d="M14.7502 14.501C14.0614 14.501 13.4998 13.9394 13.4998 13.2506C13.4998 12.5618 14.0614 12.0002 14.7502 12.0002C15.439 12.0002 16.0006 12.5618 16.0006 13.2506C16.0006 13.9394 15.439 14.501 14.7502 14.501ZM14.971 16.553C14.1166 17.405 12.4822 17.4722 12.0022 17.4722C11.5222 17.4722 9.88541 17.405 9.03341 16.553C8.90621 16.4258 8.90621 16.2218 9.03341 16.0946C9.16061 15.9674 9.36461 15.9674 9.49181 16.0946C10.0294 16.6322 11.179 16.8242 12.0022 16.8242C12.823 16.8242 13.975 16.6322 14.5126 16.0946C14.6398 15.9674 14.8438 15.9674 14.971 16.0946C15.0958 16.2218 15.0958 16.4258 14.971 16.553ZM7.99901 13.2506C7.99901 12.5618 8.56061 12.0002 9.24941 12.0002C9.93821 12.0002 10.4998 12.5618 10.4998 13.2506C10.4998 13.9394 9.93821 14.501 9.24941 14.501C8.56061 14.501 7.99901 13.9394 7.99901 13.2506ZM19.999 12.0002C19.999 11.033 19.2166 10.2506 18.2494 10.2506C17.7766 10.2506 17.3494 10.4378 17.035 10.7426C15.8398 9.87856 14.191 9.32176 12.355 9.25696L13.1518 5.50576L15.7558 6.06016C15.787 6.72256 16.3294 7.25056 16.999 7.25056C17.6902 7.25056 18.2494 6.69136 18.2494 6.00016C18.2494 5.30896 17.6902 4.74976 16.999 4.74976C16.507 4.74976 16.087 5.03536 15.883 5.44816L12.9742 4.82896C12.8926 4.81216 12.8086 4.82656 12.739 4.87216C12.6694 4.91776 12.6214 4.98736 12.6046 5.06896L11.731 9.18496C11.7262 9.20896 11.731 9.23056 11.731 9.25456C9.86141 9.30256 8.18141 9.86176 6.96701 10.7378C6.65261 10.4354 6.22781 10.2506 5.75741 10.2506C4.79021 10.2506 4.00781 11.0354 4.00781 12.0002C4.00781 12.7106 4.43261 13.3226 5.04221 13.5962C5.01581 13.769 5.00141 13.9466 5.00141 14.1266C5.00141 16.8194 8.13581 19.001 12.0022 19.001C15.8686 19.001 19.003 16.8194 19.003 14.1266C19.003 13.949 18.9886 13.7738 18.9622 13.601C19.5694 13.3274 19.999 12.7154 19.999 12.0002Z" fill="white"/>
</svg>
