<svg width="98" height="28" viewBox="0 0 98 28" fill="none" xmlns="http://www.w3.org/2000/svg">
<path fill-rule="evenodd" clip-rule="evenodd" d="M55.4833 9.53368C56.7188 8.80023 57.9537 8.43279 59.5258 8.43279C63.3446 8.43279 66.2645 12.1043 66.2645 17.1205C66.2645 23.4834 62.6707 27.5217 56.7182 27.5217C54.5837 27.5217 52.4493 27.1542 50.4277 26.6646C50.5405 24.0946 50.654 8.43279 50.4277 5.49615C50.2052 4.02713 49.8667 3.41591 48.8568 3.17143L48.0708 3.04919V2.31503L55.5961 0.847412C55.4833 2.07054 55.4833 5.61839 55.4833 9.53368ZM55.5948 26.0533C55.9308 26.1749 56.4931 26.1749 56.9426 26.1749C59.3014 26.1749 60.9864 22.3825 60.987 17.4865C60.987 13.5719 59.6393 10.3908 57.167 10.3908C56.6047 10.3908 56.1558 10.513 55.482 10.7582C55.3704 17.1205 55.482 24.3405 55.5948 26.0533ZM0 1.33638H19.7671L19.88 8.55574L18.7567 8.92318C17.634 5.25167 16.0619 3.17214 13.0285 3.17214H9.09815C8.9853 5.49686 8.87309 9.41214 8.87309 13.5726L11.5679 13.4497C13.2529 13.4497 14.0377 11.9821 14.3756 9.90182H15.3867V18.5867H14.3756C14.0383 16.5071 13.2529 15.0388 11.5679 15.0388L8.87245 14.9166C8.87245 18.097 8.98465 20.6669 9.0975 22.2582C9.32191 24.5836 9.88357 25.6845 11.3435 25.806L12.6912 26.0519V27.0306H0V26.0519L1.12332 25.806C2.58326 25.6852 3.14427 24.5836 3.36868 22.2582C3.59373 18.4666 3.70658 10.5123 3.36868 6.10736C3.14492 3.78264 2.58261 2.804 1.12332 2.55951L0 2.43727V1.33638ZM34.5927 17.8547C34.5927 12.3488 31.785 8.18835 26.1691 8.18835C20.5531 8.18835 17.4088 12.5933 17.4088 17.8547C17.4088 23.3613 20.2165 27.5225 25.8318 27.5225C31.4478 27.5225 34.5927 23.1161 34.5927 17.8547ZM22.6869 17.8547C22.6869 13.083 23.3608 9.41219 25.8318 9.41219C28.1913 9.41219 29.3133 13.2052 29.3133 17.8547C29.3133 22.6264 28.6382 26.2972 26.0569 26.2972C23.8102 26.2972 22.6869 22.5042 22.6869 17.8547ZM76.3717 8.18835C70.6435 8.18835 67.7236 12.9608 67.7236 17.9777C67.7236 23.6065 71.3174 27.5218 76.3717 27.5225C79.516 27.5225 81.9864 25.8082 83.1097 24.0954L82.6615 23.4842C81.5376 24.3413 80.6393 24.8296 78.8421 24.8296C74.7983 24.8296 72.7767 21.5255 72.8895 16.9983H83.3347C83.3347 11.9821 81.0874 8.18835 76.3717 8.18835ZM78.1682 15.53L72.8895 15.6529C73.0011 12.8378 74.0135 9.41219 75.9222 9.41219C77.831 9.41219 78.1682 13.083 78.1682 15.53ZM91.5359 8.18835C93.5575 8.18835 95.3541 8.55508 96.7018 9.16771L96.8166 13.9394L96.0312 14.1839C95.0187 10.8798 93.671 9.53373 91.6507 9.53373C90.303 9.53373 89.2906 10.6353 89.2906 12.2259C89.2906 13.8172 90.4126 14.6736 93.5582 16.0189C96.478 17.2435 97.7142 18.7111 97.7142 21.281C97.7142 25.0734 94.9059 27.5218 90.5255 27.5218C88.391 27.5218 85.9206 27.0314 84.5729 26.4202L84.46 21.0365L85.2467 20.7906C86.4816 24.4622 88.055 25.8075 90.1882 25.8075C91.9854 25.8075 92.9965 24.4622 92.9965 22.9938C92.9965 21.5255 92.2098 20.6684 89.4028 19.5682C86.7041 18.5889 84.7966 17.2435 84.7966 14.0617C84.7966 10.8798 87.3812 8.18835 91.5359 8.18835ZM42.1174 12.4718C43.914 8.06611 47.2839 7.45561 49.1927 8.67803L47.3955 13.6956C45.1495 12.1051 42.6784 12.8385 42.1174 13.6956C42.0046 16.6323 42.0046 21.2817 42.229 23.6072C42.3418 25.0741 42.6791 25.8082 43.8018 25.9312L45.1495 26.0541V27.0328H34.7049V26.0541L35.491 25.9312C36.5028 25.8082 36.9509 25.0741 37.0638 23.6072C37.176 21.038 37.2882 15.8981 37.0638 12.9615C36.9509 11.3702 36.5028 10.759 35.491 10.636L34.7049 10.5138V9.77963L42.229 8.18906L42.1174 12.4718Z" fill="#C0CDD3"/>
</svg>
