<svg width="40" height="40" viewBox="0 0 40 40" fill="none" xmlns="http://www.w3.org/2000/svg">
<rect width="40" height="40" fill="white"/>
<circle cx="20" cy="20" r="20" fill="#4ED687" fill-opacity="0.2"/>
<circle cx="20" cy="20" r="12" fill="#4ED687"/>
<path d="M19.3521 21.864L20.7761 21.384C20.5521 21.224 20.4241 20.92 20.4241 20.664C20.4241 19.24 23.2721 19.048 23.2721 16.68C23.2721 15.24 22.0401 14.168 20.0241 14.168C18.5841 14.168 17.3521 14.744 16.5361 15.752L17.6241 16.952C18.1521 16.264 18.8561 15.832 19.8481 15.832C20.8721 15.832 21.3681 16.36 21.3681 16.984C21.3681 18.344 18.7921 18.536 18.7921 20.488C18.7921 21.016 18.9681 21.496 19.3521 21.864ZM19.9281 25.176C20.5361 25.176 21.0481 24.648 21.0481 24.04C21.0481 23.448 20.5361 22.936 19.9281 22.936C19.3201 22.936 18.8081 23.448 18.8081 24.04C18.8081 24.648 19.3201 25.176 19.9281 25.176Z" fill="white"/>
</svg>
