<svg width="154" height="18" viewBox="0 0 154 18" fill="none" xmlns="http://www.w3.org/2000/svg">
<path fill-rule="evenodd" clip-rule="evenodd" d="M95.2374 10.3877C95.2374 3.87443 98.893 0 105.007 0C109.902 0 112.81 2.70163 112.788 7.24624C112.788 13.7595 109.133 17.6339 103.019 17.6339C98.1448 17.6339 95.2374 14.9113 95.2374 10.3877ZM101.052 10.5133C101.052 12.2306 101.907 13.2568 103.361 13.2568C105.648 13.2568 106.375 11.2044 106.803 9.00544C106.931 8.35621 106.995 7.79075 106.995 7.14152C106.995 5.42421 106.14 4.39801 104.686 4.39801C102.399 4.39801 101.672 6.42947 101.245 8.64941C101.116 9.29864 101.052 9.8641 101.052 10.5133ZM30.0141 9.75947L31.7243 0.356112V0.335169H37.3466L35.7219 9.08929C35.5509 9.94795 35.4654 10.6391 35.4654 11.2045C35.4654 12.6705 36.1281 13.3826 37.4963 13.3826C39.5913 13.3826 39.9547 11.9375 40.4678 9.17307L42.0711 0.335169H47.6934L45.8122 10.8694C44.9357 15.791 42.52 17.613 36.9191 17.613C34.2469 17.613 29.8003 16.8591 29.8003 11.8747C29.8003 11.2045 29.8644 10.4925 30.0141 9.75947ZM25.525 17.2779H19.9027L21.0357 10.9532H16.1616L15.0286 17.2779H9.40625L12.4205 0.376968H18.0428L16.9312 6.42948H21.8053L22.9169 0.376968H28.5393L25.525 17.2779ZM77.4087 17.2778H83.031L83.822 12.9216H86.4728C91.3683 12.9216 94.0833 10.3247 94.0833 5.59161C94.0833 2.26168 91.7317 0.355875 87.6058 0.355875H80.4229L77.4087 17.2778ZM86.1735 8.754H84.5488L85.2971 4.77484H86.8149C88.0548 4.77484 88.7175 5.38218 88.7175 6.49216C88.7175 7.89533 87.7555 8.754 86.1735 8.754ZM132.349 17.2779H137.971L140.195 4.90065H144.427L145.24 0.376968H130.853L130.04 4.90065H134.53L132.349 17.2779ZM120.527 5.0263C120.527 5.84307 121.254 6.07344 123.029 6.61796C126.043 7.5185 127.518 9.19394 127.496 11.749C127.496 16.859 122.665 17.613 119.779 17.613C115.995 17.613 113.58 16.1889 113.045 13.6757L117.941 12.3773C118.261 13.2569 119.202 13.7595 120.078 13.7595C121.04 13.7595 121.596 13.2987 121.596 12.5657C121.596 11.6575 120.641 11.4003 119.795 11.1725L119.758 11.1626C116.508 10.283 115.012 8.58659 115.012 5.82213C115.012 4.46084 115.546 0 122.344 0C125.957 0 128.052 1.21469 128.629 3.60218L123.67 4.92158C123.413 4.27235 122.751 3.83255 121.96 3.83255C120.891 3.83255 120.527 4.48178 120.527 5.0263ZM6.26366 17.2779L9.29929 0.376968H0V17.2779H6.26366ZM144.641 17.2779L147.656 0.376968H153.941V17.2779H144.641ZM50.9002 0.355875L47.886 17.2778H53.5083L54.4062 12.2934H59.1306L59.9002 8.04193H55.1758L55.7102 4.90049H62.3159L63.1283 0.355875H50.9002ZM62.6365 17.2778L65.6507 0.355875H77.8788L77.0664 4.90049H70.4607L69.9263 8.04193H74.6507L73.8811 12.2934H69.1353L68.2588 17.2778H62.6365Z" fill="#C0CDD3"/>
</svg>
