<svg width="24" height="24" viewBox="0 0 24 24" fill="none" xmlns="http://www.w3.org/2000/svg">
<path fill-rule="evenodd" clip-rule="evenodd" d="M12 24C18.6274 24 24 18.6274 24 12C24 5.37258 18.6274 0 12 0C5.37258 0 0 5.37258 0 12C0 18.6274 5.37258 24 12 24ZM7.75676 9.17158C7.36624 8.78106 7.36624 8.14789 7.75676 7.75737C8.14728 7.36685 8.78045 7.36685 9.17097 7.75737L11.9995 10.5858L14.8279 7.7574C15.2184 7.36688 15.8516 7.36688 16.2421 7.7574C16.6326 8.14792 16.6326 8.78109 16.2421 9.17161L13.4137 12.0001L16.242 14.8284C16.6326 15.219 16.6326 15.8521 16.242 16.2427C15.8515 16.6332 15.2184 16.6332 14.8278 16.2427L11.9995 13.4143L9.17104 16.2427C8.78052 16.6332 8.14736 16.6332 7.75683 16.2427C7.36631 15.8522 7.36631 15.219 7.75683 14.8285L10.5852 12.0001L7.75676 9.17158Z" fill="#EF3F61"/>
</svg>
