<svg width="27" height="19" viewBox="0 0 27 19" fill="none" xmlns="http://www.w3.org/2000/svg">
<path d="M13.4916 0C13.4916 0 5.05303 7.87235e-06 2.93505 0.553411C1.80101 0.872031 0.867218 1.81102 0.550354 2.96813C1.25389e-05 5.09787 0 9.50839 0 9.50839C0 9.50839 1.25389e-05 13.9357 0.550354 16.0319C0.867218 17.189 1.78433 18.1112 2.93505 18.4298C5.0697 19 13.4916 19 13.4916 19C13.4916 19 21.947 19 24.0649 18.4466C25.2156 18.128 26.1327 17.2225 26.4329 16.0487C26.9999 13.9357 27 9.52517 27 9.52517C27 9.52517 27.0166 5.09787 26.4329 2.96813C26.1327 1.81102 25.2156 0.888823 24.0649 0.586967C21.947 2.68172e-05 13.4916 0 13.4916 0ZM10.8066 5.43344L17.8277 9.50839L10.8066 13.5666V5.43344Z" fill="#FF0000"/>
</svg>
