<svg width="173" height="29" viewBox="0 0 173 29" fill="none" xmlns="http://www.w3.org/2000/svg">
<g clip-path="url(#clip0)">
<path d="M11.7164 6.70689C13.3935 5.4848 15.4394 4.83767 17.5344 4.86661V0.00364064C14.3812 -0.0405767 11.3016 0.932249 8.77637 2.77029L11.7164 6.70689Z" fill="#C0CDD3"/>
<path d="M11.7165 6.70687L8.77644 2.77026C6.19825 4.53823 4.29442 7.08732 3.3623 10.0194L8.11315 11.5236C8.73406 9.57458 10.0012 7.88072 11.7165 6.70687Z" fill="#C0CDD3"/>
<path d="M8.11998 17.4764L3.36914 18.9807C4.30091 21.9129 6.20401 24.4625 8.78144 26.2316L11.7215 22.2932C10.0072 21.1188 8.74079 19.425 8.11998 17.4764Z" fill="#C0CDD3"/>
<path d="M11.7164 22.2932L8.77637 26.2316C11.3012 28.0705 14.3809 29.044 17.5344 29V24.1335C15.4394 24.162 13.3937 23.5149 11.7164 22.2932Z" fill="#C0CDD3"/>
<path d="M23.3521 22.2932C21.675 23.5152 19.6292 24.1623 17.5342 24.1335V29C20.6877 29.0444 23.7675 28.0709 26.2922 26.2316L23.354 22.2932H23.3521Z" fill="#C0CDD3"/>
<path d="M26.9495 17.4764C26.3294 19.4239 25.0652 21.1173 23.3535 22.2932L26.2917 26.2316C28.8698 24.4628 30.7736 21.9131 31.7059 18.9807L26.9495 17.4764Z" fill="#C0CDD3"/>
<path d="M31.7059 10.0194L26.9551 11.5236C27.6307 13.4535 27.6307 15.5467 26.9551 17.4765L31.7059 18.9808C32.7225 16.0756 32.7225 12.9246 31.7059 10.0194Z" fill="#C0CDD3"/>
<path d="M26.9504 11.5236L31.7012 10.0194C30.7691 7.08732 28.8653 4.53823 26.2871 2.77026L23.3525 6.70687C25.0659 7.88138 26.3312 9.57521 26.9504 11.5236Z" fill="#C0CDD3"/>
<path d="M23.3521 6.70683L26.2922 2.76845C23.7669 0.930681 20.6872 -0.0415535 17.5342 0.00357845V4.86655C19.6292 4.83721 21.6752 5.48438 23.3521 6.70683Z" fill="#C0CDD3"/>
<path d="M14.4951 18.5718L11.7158 22.2932C13.3936 23.5153 15.44 24.1624 17.5356 24.1335V19.5337C16.4428 19.5354 15.3779 19.1985 14.4951 18.5718Z" fill="#C0CDD3"/>
<path d="M12.6151 16.0559L8.12012 17.4783C8.73949 19.4262 10.0039 21.1198 11.7161 22.2951L14.4954 18.5736C13.6113 17.9485 12.9532 17.0672 12.6151 16.0559Z" fill="#C0CDD3"/>
<path d="M14.4954 10.43L11.7161 6.70679C10.0036 7.88178 8.73912 9.57551 8.12012 11.5235L12.6151 12.946C12.9534 11.9353 13.6115 11.0546 14.4954 10.43Z" fill="#C0CDD3"/>
<path d="M17.5338 9.46635V4.86653C15.4388 4.8376 13.3929 5.48472 11.7158 6.70681L14.4951 10.43C15.377 9.80287 16.4414 9.46533 17.5338 9.46635Z" fill="#C0CDD3"/>
<path d="M20.5747 10.4301L23.3521 6.70684C21.6752 5.48439 19.6292 4.83722 17.5342 4.86656V9.46637C18.6272 9.4651 19.6922 9.80265 20.5747 10.4301Z" fill="#C0CDD3"/>
<path d="M23.3516 6.70679L20.5742 10.43C21.4577 11.055 22.1158 11.9355 22.4545 12.946L26.9495 11.5235C26.3303 9.57514 25.065 7.8813 23.3516 6.70679Z" fill="#C0CDD3"/>
<path d="M22.7072 14.5001C22.7078 15.0283 22.6227 15.5534 22.4551 16.0559L26.9501 17.4783C27.6258 15.5485 27.6258 13.4552 26.9501 11.5254L22.4551 12.9478C22.6222 13.4492 22.7073 13.973 22.7072 14.5001Z" fill="#C0CDD3"/>
<path d="M20.5742 18.5717L23.3516 22.2931C25.0633 21.1173 26.3275 19.4239 26.9477 17.4764L22.4526 16.054C22.1149 17.0649 21.4574 17.9461 20.5742 18.5717Z" fill="#C0CDD3"/>
<path d="M17.5342 19.5337V24.1335C19.6292 24.1623 21.675 23.5152 23.3521 22.2932L20.5747 18.5718C19.6918 19.1983 18.6269 19.5352 17.5342 19.5337Z" fill="#C0CDD3"/>
<path d="M8.1348 17.4907L12.6152 16.0558L9.2348 14.2635L4.98828 15.2077L8.1348 17.4907Z" fill="#C0CDD3"/>
<path d="M8.1349 17.4907L4.98838 15.2076L0 16.3065L3.38223 19.034L8.1349 17.4907Z" fill="#C0CDD3"/>
<path d="M42.5856 11.4898C41.7177 10.7288 40.9722 10.679 40.6414 10.679C40.276 10.679 39.8265 10.7306 39.514 11.0684C39.3229 11.2582 39.2165 11.5139 39.218 11.7796C39.2113 11.8958 39.2311 12.012 39.2759 12.1199C39.3208 12.2278 39.3896 12.3247 39.4775 12.4037C39.7552 12.6562 40.1554 12.7593 40.9393 13.0456L41.8072 13.3657C42.3097 13.5435 42.9346 13.8048 43.3878 14.228C43.6705 14.5011 43.8922 14.8281 44.0387 15.1886C44.1852 15.5491 44.2535 15.9352 44.2393 16.3226C44.2393 17.489 43.8227 18.5024 43.2142 19.1105C42.1891 20.1578 40.6962 20.2592 39.9251 20.2592C39.1333 20.2838 38.3471 20.1216 37.6338 19.7862C37.0086 19.4575 36.4356 19.0424 35.9326 18.554L37.3213 16.6959C37.6502 17.0164 38.0107 17.3047 38.3976 17.5565C38.8347 17.8255 39.3422 17.9663 39.8594 17.9619C40.2991 17.9771 40.73 17.839 41.0745 17.5725C41.209 17.46 41.3161 17.3197 41.3881 17.162C41.4602 17.0043 41.4953 16.8329 41.4911 16.6604C41.4948 16.5043 41.4607 16.3495 41.3915 16.2087C41.3223 16.0678 41.2199 15.9448 41.0928 15.8496C40.7803 15.5953 40.0677 15.3428 39.7388 15.2237L38.7831 14.9037C38.2459 14.7259 37.621 14.4823 37.1697 14.0146C36.5612 13.3888 36.4753 12.5922 36.4753 12.0588C36.459 11.5922 36.5398 11.1273 36.7128 10.6919C36.8858 10.2565 37.1475 9.85958 37.4821 9.52506C38.2989 8.71427 39.271 8.49557 40.3454 8.49557C41.5852 8.48496 42.7935 8.87521 43.7806 9.60508L42.5856 11.4898Z" fill="#C0CDD3"/>
<path d="M53.3478 19.0395C52.6534 19.7151 51.473 20.2557 49.9619 20.2557C48.4508 20.2557 47.2722 19.7223 46.576 19.0395C45.83 18.2866 45.4131 17.2814 45.4131 16.2355C45.4131 15.1896 45.83 14.1844 46.576 13.4315C47.2704 12.7559 48.4508 12.2153 49.9619 12.2153C51.473 12.2153 52.6534 12.7487 53.3478 13.4315C54.0938 14.1844 54.5107 15.1896 54.5107 16.2355C54.5107 17.2814 54.0938 18.2866 53.3478 19.0395ZM48.5549 14.8166C48.1849 15.2028 47.9791 15.7111 47.9791 16.2391C47.9791 16.767 48.1849 17.2754 48.5549 17.6615C48.7424 17.84 48.9653 17.9795 49.2101 18.0712C49.4548 18.1629 49.7163 18.205 49.9784 18.1949C50.2349 18.202 50.4902 18.1584 50.7289 18.0668C50.9676 17.9751 51.1847 17.8372 51.3671 17.6615C51.7371 17.2754 51.9429 16.767 51.9429 16.2391C51.9429 15.7111 51.7371 15.2028 51.3671 14.8166C50.9858 14.4694 50.4832 14.2762 49.961 14.2762C49.4388 14.2762 48.9362 14.4694 48.5549 14.8166Z" fill="#C0CDD3"/>
<path d="M61.8177 14.8502C61.3612 14.4762 60.7827 14.2726 60.1859 14.2759C59.9243 14.2695 59.6639 14.3133 59.4197 14.4048C59.1754 14.4963 58.9521 14.6338 58.7625 14.8093C58.5754 14.998 58.4286 15.2208 58.3304 15.4649C58.2322 15.7091 58.1847 15.9697 58.1906 16.2318C58.1808 16.7304 58.3671 17.2137 58.7113 17.5831C58.9069 17.7794 59.1417 17.9346 59.4013 18.0392C59.6609 18.1437 59.9397 18.1955 60.2207 18.1912C60.809 18.1877 61.3761 17.9774 61.8177 17.5991V19.795C61.2117 20.1164 60.5285 20.2741 59.8388 20.252C59.2858 20.267 58.7353 20.1745 58.2195 19.98C57.7037 19.7856 57.233 19.493 56.8348 19.1193C56.4423 18.7462 56.1321 18.2991 55.9232 17.8054C55.7142 17.3117 55.611 16.7817 55.6196 16.2478C55.6123 15.6934 55.722 15.1435 55.9421 14.6322C56.1621 14.1208 56.4877 13.6588 56.8987 13.2749C57.7667 12.4819 58.7917 12.2081 59.8497 12.2081C60.5286 12.2003 61.2002 12.3451 61.8122 12.6312V14.8502H61.8177Z" fill="#C0CDD3"/>
<path d="M64.8398 7.8414C65.1289 7.8414 65.4116 7.92482 65.6519 8.08112C65.8923 8.23742 66.0797 8.45958 66.1903 8.7195C66.301 8.97941 66.3299 9.26542 66.2735 9.54134C66.2171 9.81727 66.0779 10.0707 65.8735 10.2697C65.669 10.4686 65.4086 10.6041 65.125 10.6589C64.8414 10.7138 64.5475 10.6857 64.2804 10.578C64.0133 10.4703 63.785 10.288 63.6244 10.0541C63.4638 9.82019 63.378 9.54517 63.378 9.26384C63.3758 9.07645 63.4121 8.89052 63.4848 8.71697C63.5575 8.54342 63.6651 8.38576 63.8013 8.25324C63.9374 8.12073 64.0995 8.01603 64.2778 7.94531C64.4562 7.87458 64.6472 7.83926 64.8398 7.8414ZM66.0897 12.4643V19.9979H63.59V12.4697H66.0897V12.4643Z" fill="#C0CDD3"/>
<path d="M74.0727 12.4695H76.5724V20.0031H74.0727V19.0909C73.8298 19.464 73.4901 19.7682 73.0878 19.9726C72.6855 20.1771 72.2348 20.2747 71.7814 20.2556C70.6704 20.2556 69.733 19.9853 68.8815 19.1069C68.139 18.3472 67.734 17.3334 67.7541 16.2852C67.727 15.158 68.157 14.0658 68.951 13.2447C69.3067 12.9075 69.728 12.6428 70.1901 12.466C70.6523 12.2893 71.1461 12.204 71.6425 12.2152C72.3021 12.2152 73.3601 12.3681 74.0727 13.3123V12.4695ZM70.897 14.8503C70.7117 15.0292 70.5655 15.2427 70.4672 15.478C70.3689 15.7132 70.3206 15.9654 70.3251 16.2194C70.3138 16.7182 70.5003 17.2021 70.8458 17.5707C71.0388 17.7604 71.2688 17.9105 71.5224 18.0122C71.776 18.1139 72.048 18.1651 72.3222 18.1628C72.8106 18.162 73.2789 17.9735 73.6251 17.6383C74.0079 17.2689 74.2261 16.7678 74.2326 16.2432C74.2391 15.7186 74.0334 15.2125 73.6598 14.8343C73.2787 14.4996 72.7844 14.3129 72.2711 14.3098C71.7582 14.3092 71.2653 14.5031 70.897 14.8503Z" fill="#C0CDD3"/>
<path d="M81.0163 7.68835V20.0031H78.5166V7.68835H81.0163Z" fill="#C0CDD3"/>
<path d="M82.7178 20.0032L84.5761 8.73572H86.798L89.6796 15.4727L92.5684 8.73572H94.7904L96.6487 20.0032H93.9663L93.0527 13.2804L90.1528 20.0032H89.2154L86.312 13.2804L85.3983 20.0032H82.7178Z" fill="#C0CDD3"/>
<path d="M106.205 16.6587H100.426C100.427 17.1259 100.592 17.5786 100.893 17.9424C101.06 18.1043 101.261 18.2301 101.481 18.3116C101.702 18.3931 101.937 18.4285 102.172 18.4154C102.522 18.427 102.868 18.3518 103.179 18.1967C103.415 18.0411 103.6 17.8242 103.715 17.5708L106.09 17.8073C105.845 18.5936 105.315 19.2661 104.597 19.6991C103.852 20.1383 103.018 20.2557 102.149 20.2557C100.987 20.2557 99.956 20.053 99.0589 19.1746C98.6774 18.7892 98.3782 18.3339 98.1787 17.8352C97.9793 17.3365 97.8834 16.8043 97.8967 16.2693C97.8831 15.1676 98.3058 14.103 99.0771 13.2964C100.015 12.3842 101.178 12.2153 102.046 12.2153C102.914 12.2153 104.164 12.3682 105.12 13.348C106.033 14.2939 106.216 15.4816 106.216 16.4062V16.6587H106.205ZM103.897 15.206C103.813 14.8749 103.64 14.5717 103.395 14.3277C103.051 14.0419 102.61 13.8906 102.157 13.9031C101.705 13.9156 101.273 14.0909 100.946 14.3952C100.728 14.6217 100.579 14.9022 100.513 15.206H103.897Z" fill="#C0CDD3"/>
<path d="M116.139 20.0031H113.634V19.091C113.252 19.6244 112.558 20.2556 111.185 20.2556C110.04 20.2556 109.207 19.9 108.529 19.2261C108.131 18.8252 107.819 18.3517 107.611 17.8329C107.402 17.3141 107.301 16.7604 107.314 16.2034C107.314 14.9588 107.781 13.9222 108.529 13.2305C109.26 12.5703 110.223 12.2077 111.22 12.217C112.072 12.217 113.009 12.4873 113.634 13.3141V7.68835H116.139V20.0031ZM110.491 14.8166C110.293 15.0023 110.137 15.2258 110.033 15.473C109.928 15.7202 109.877 15.9859 109.883 16.2532C109.882 16.5122 109.936 16.7686 110.04 17.0067C110.145 17.2448 110.298 17.4597 110.491 17.6383C110.841 17.9679 111.307 18.1554 111.794 18.1628C112.322 18.1551 112.829 17.9568 113.216 17.6063C113.401 17.4313 113.548 17.2211 113.646 16.9886C113.744 16.7561 113.793 16.5064 113.787 16.255C113.8 15.7409 113.603 15.2427 113.239 14.8699C113.06 14.6846 112.841 14.539 112.599 14.443C112.356 14.347 112.096 14.3028 111.834 14.3134C111.587 14.3038 111.34 14.3435 111.109 14.43C110.878 14.5165 110.668 14.6481 110.491 14.8166Z" fill="#C0CDD3"/>
<path d="M119.502 7.8414C119.791 7.8414 120.074 7.92482 120.314 8.08112C120.554 8.23742 120.742 8.45958 120.852 8.7195C120.963 8.97941 120.992 9.26542 120.936 9.54134C120.879 9.81727 120.74 10.0707 120.536 10.2697C120.331 10.4686 120.071 10.6041 119.787 10.6589C119.504 10.7138 119.21 10.6857 118.943 10.578C118.675 10.4703 118.447 10.288 118.286 10.0541C118.126 9.82019 118.04 9.54517 118.04 9.26384C118.038 9.07645 118.074 8.89052 118.147 8.71697C118.22 8.54342 118.327 8.38576 118.463 8.25324C118.6 8.12073 118.762 8.01603 118.94 7.94531C119.118 7.87458 119.309 7.83926 119.502 7.8414ZM120.752 12.4643V19.9979H118.252V12.4697H120.752V12.4643Z" fill="#C0CDD3"/>
<path d="M128.735 12.4695H131.235V20.0031H128.735V19.0909C128.492 19.464 128.152 19.7682 127.75 19.9726C127.348 20.1771 126.897 20.2747 126.444 20.2556C125.333 20.2556 124.395 19.9853 123.544 19.1069C122.801 18.3472 122.396 17.3334 122.416 16.2852C122.389 15.158 122.819 14.0658 123.613 13.2447C123.969 12.9075 124.39 12.6428 124.852 12.466C125.314 12.2893 125.808 12.204 126.305 12.2152C126.964 12.2152 128.022 12.3681 128.735 13.3123V12.4695ZM125.559 14.8503C125.374 15.0292 125.228 15.2427 125.129 15.478C125.031 15.7132 124.983 15.9654 124.987 16.2194C124.976 16.7182 125.162 17.2021 125.508 17.5707C125.701 17.7604 125.931 17.9105 126.185 18.0122C126.438 18.1139 126.71 18.1651 126.984 18.1628C127.473 18.162 127.941 17.9735 128.287 17.6383C128.67 17.2689 128.888 16.7678 128.895 16.2432C128.901 15.7186 128.696 15.2125 128.322 14.8343C127.941 14.4996 127.447 14.3129 126.933 14.3098C126.42 14.3092 125.927 14.5031 125.559 14.8503Z" fill="#C0CDD3"/>
<path d="M136.477 9.91812V20.0032H135.197V9.91812H132.38V8.73572H139.289V9.91812H136.477Z" fill="#C0CDD3"/>
<path d="M138.733 16.5236C138.733 14.3899 140.347 12.8235 142.552 12.8235C144.758 12.8235 146.371 14.3935 146.371 16.5236C146.371 18.6537 144.74 20.206 142.552 20.206C140.365 20.206 138.733 18.6519 138.733 16.5236ZM140.012 16.5236C140.012 18.2465 141.262 19.1249 142.547 19.1249C143.831 19.1249 145.081 18.2359 145.081 16.5236C145.081 14.8113 143.866 13.9045 142.547 13.9045C141.228 13.9045 140.018 14.8167 140.018 16.5236H140.012Z" fill="#C0CDD3"/>
<path d="M153.731 7.68835H154.981V20.0031H153.731V19.0288C153.445 19.4004 153.072 19.7012 152.644 19.9066C152.216 20.112 151.744 20.2164 151.266 20.2112C149.439 20.2112 147.76 18.9665 147.76 16.495C147.76 14.0804 149.426 12.8287 151.266 12.8287C151.743 12.817 152.216 12.9168 152.645 13.1198C153.074 13.3228 153.446 13.6229 153.731 13.9951V7.68835ZM149.044 16.4897C149.044 17.9939 149.912 19.1248 151.405 19.1248C152.933 19.1248 153.801 17.8926 153.801 16.5075C153.801 14.6992 152.522 13.9062 151.405 13.9062C150.174 13.9044 149.044 14.7828 149.044 16.4897Z" fill="#C0CDD3"/>
<path d="M162.793 12.9923H164.043V20.0031H162.793V19.0287C162.506 19.4004 162.134 19.7012 161.705 19.9066C161.277 20.112 160.805 20.2164 160.328 20.2111C158.501 20.2111 156.821 18.9665 156.821 16.495C156.821 14.0804 158.488 12.8287 160.328 12.8287C160.805 12.817 161.277 12.9168 161.706 13.1198C162.135 13.3227 162.508 13.6229 162.793 13.9951V12.9923ZM158.106 16.4897C158.106 17.9939 158.974 19.1248 160.467 19.1248C161.994 19.1248 162.862 17.8926 162.862 16.5075C162.862 14.6992 161.583 13.9062 160.467 13.9062C159.235 13.9044 158.106 14.7828 158.106 16.4897Z" fill="#C0CDD3"/>
<path d="M168.609 19.3434L165.293 12.9922H166.716L169.275 18.0098L171.619 12.9922H173.008L167.709 23.8881H166.32L168.609 19.3434Z" fill="#C0CDD3"/>
</g>
<defs>
<clipPath id="clip0">
<rect width="173" height="29" fill="white"/>
</clipPath>
</defs>
</svg>
