<svg width="24" height="24" viewBox="0 0 24 24" fill="none" xmlns="http://www.w3.org/2000/svg">
<path fill-rule="evenodd" clip-rule="evenodd" d="M12 24C18.6274 24 24 18.6274 24 12C24 5.37258 18.6274 0 12 0C5.37258 0 0 5.37258 0 12C0 18.6274 5.37258 24 12 24ZM17.1811 7.03151C17.3181 7.06551 17.447 7.12628 17.5605 7.21035C17.6744 7.29416 17.7707 7.39969 17.844 7.52092C17.9173 7.64214 17.966 7.77668 17.9875 7.91685C18.009 8.05702 18.0027 8.20006 17.9691 8.3378C17.9356 8.47555 17.8753 8.60529 17.7917 8.71962L12.0329 16.5656C11.9461 16.6813 11.8372 16.7785 11.7126 16.8515C11.5881 16.9245 11.4502 16.9718 11.3072 16.9907C11.1642 17.0096 11.0189 16.9997 10.8798 16.9615C10.7406 16.9233 10.6105 16.8577 10.4969 16.7685L6.38572 13.465C6.16993 13.2838 6.03339 13.025 6.00536 12.7439C5.97733 12.4628 6.06004 12.1818 6.23576 11.9613C6.41148 11.7407 6.66622 11.5981 6.94539 11.564C7.22455 11.5298 7.50592 11.6069 7.72917 11.7787L10.967 14.3811L16.0589 7.43916C16.1425 7.32505 16.2477 7.22861 16.3684 7.15535C16.4892 7.08209 16.6231 7.03345 16.7625 7.0122C16.902 6.99095 17.0442 6.99751 17.1811 7.03151Z" fill="#4ED687"/>
</svg>
